<?xml version="1.0" encoding="utf-8"?>
<!-- Generator: Adobe Illustrator 23.0.1, SVG Export Plug-In . SVG Version: 6.00 Build 0)  -->
<svg version="1.1" xmlns="http://www.w3.org/2000/svg" xmlns:xlink="http://www.w3.org/1999/xlink" x="0px" y="0px"
	 viewBox="0 0 180 252" style="enable-background:new 0 0 180 252;" xml:space="preserve">
<style type="text/css">
	.st0{fill:#FFFFFF;}
</style>
<g id="Layer_1">
</g>
<g id="Layer_2">
	<g>
		<g>
			<g>
				<g>
					<path class="st0" d="M90,196.6c-39.1,0-70.5-31.7-70.5-70.6C19.5,87,51,55.4,90.1,55.4c38.9,0,70.5,31.6,70.5,70.7
						C160.5,165.1,128.9,196.5,90,196.6 M157.4,126c0-37.2-30.2-67.4-67.3-67.5c-37.2-0.1-67.5,30.1-67.6,67.4
						c-0.1,37.3,30.3,67.5,67.4,67.6C127.2,193.5,157.5,163.2,157.4,126"/>
					<path class="st0" d="M155,126c0,35.9-29.2,65.1-65.3,65c-35.8-0.1-64.9-29.3-64.8-65.3C25.1,89.8,54.3,60.8,90.3,61
						C126.2,61.1,155.1,90.3,155,126 M90,79.4c-25.6-0.1-46.6,20.8-46.6,46.5c0,25.7,20.9,46.6,46.6,46.6
						c25.6,0,46.6-20.8,46.6-46.6C136.6,100.3,115.6,79.4,90,79.4 M112.3,82c0.5,0.2,1,0.4,1.5,0.6c0.7,0.3,1.4,0.7,2,1.2
						c0.2,0.2,0.4,0.3,0.7,0.5c0.1,0.1,0.2,0.2,0.3,0.2c0.4-0.3,0.8-0.5,1.3-0.8c0.4-0.3,0.9-0.5,1.3-0.8c0.4,0.2,3.7,2.8,4,3.1
						c0,0.1,0,0.2-0.1,0.3c-0.2,0.8-0.5,1.5-0.7,2.3c0,0.1-0.1,0.2,0,0.4c0.7,0.6,1.8,1.5,2.2,1.6c0-0.1,0.1-0.1,0.1-0.2
						c1.2-4.3,2.5-8.6,3.7-12.9c0,0,0,0,0,0c0,0,0,0,0-0.1c-0.7-0.5-1.4-1.1-2.1-1.6c-3.8,2.2-7.5,4.5-11.3,6.7
						c-0.1-0.1-0.1-0.3-0.1-0.4c-0.2-1.1-0.3-2.1-0.5-3.2c-0.1-0.9-0.4-1.7-0.9-2.4c0-0.1-0.1-0.1,0-0.2c0.1,0,0.2,0,0.3,0
						c0.4,0.1,0.8,0.1,1.1,0.1c1,0,1.8-0.5,2.5-1.3c0.6-0.8,0.9-1.7,0.8-2.7c-0.1-0.8-0.4-1.5-1-2c-0.2-0.2-0.5-0.4-0.7-0.5
						c-0.4-0.2-0.9-0.5-1.3-0.7c-1.7-0.8-3.4-1.5-5.2-2.2c-0.1,0-0.1-0.1-0.2-0.1c-0.3,0.4-4.9,11.3-5.1,11.7c0.8,0.3,1.5,0.7,2.3,1
						c0.4-0.8,0.7-1.6,1.1-2.4c0.4-0.8,0.7-1.6,1.1-2.5c0.4,0.2,0.8,0.3,1.2,0.5c0.5,0.3,0.8,0.7,1,1.2c0,0.1,0.1,0.3,0.1,0.4
						c0.3,1.2,0.5,2.3,0.7,3.5C112.1,80.9,112.2,81.5,112.3,82 M77.6,78.2c-0.2-0.9-0.4-1.7-0.5-2.6c-0.2-0.9-0.4-1.7-0.5-2.6
						c0.5-0.1,0.9-0.2,1.3-0.2c0.5,0,1,0.1,1.4,0.4c0.3,0.2,0.6,0.5,0.8,0.7c1,0.9,1.9,1.8,2.8,2.8c0.1,0.1,0.2,0.2,0.3,0.3
						c0.8-0.1,2.6-0.5,2.9-0.6c0-0.1-0.1-0.2-0.2-0.2c-0.5-0.5-1-1-1.4-1.5c-0.5-0.5-1-1-1.5-1.5c-0.5-0.5-1.2-0.9-1.9-1.2
						c-0.1,0-0.2-0.1-0.3-0.2c0.1-0.1,0.3-0.1,0.4-0.2c0.4-0.2,0.7-0.4,1-0.6c0.6-0.5,1-1.2,1.1-2c0.1-0.6,0-1.2-0.2-1.8
						c-0.5-1.6-1.8-2.4-3.5-2.3c-0.5,0-1.1,0.1-1.6,0.2c-1.8,0.4-3.6,0.8-5.5,1.1c-0.1,0-0.2,0-0.2,0.1c0,0,0,0,0,0
						c0.8,3.9,1.7,7.9,2.5,11.8c0,0.2,0.1,0.3,0.1,0.5c0,0,0,0,0,0c0,0,0,0,0.1,0.1C75.9,78.6,76.7,78.4,77.6,78.2 M143,105.2
						c-0.7,0.9-1.3,1.7-2,2.5c-0.7,0.8-1.4,1.6-2,2.4c-0.7,0.8-1.4,1.6-2.1,2.5c0.1,0.4,0.3,0.8,0.4,1.2c0.1,0.4,0.2,0.8,0.4,1.2
						c0.1,0,0.2,0,0.3-0.1c3.8-1.2,7.7-2.5,11.5-3.7c0.1,0,0.3-0.1,0.4-0.2c-0.2-0.7-0.4-1.5-0.7-2.2c-0.2,0-0.4,0.1-0.6,0.1
						c-2.3,0.8-4.7,1.5-7,2.3c-0.1,0-0.2,0.1-0.3,0c0.1-0.1,0.2-0.3,0.3-0.4c1.9-2.2,3.8-4.5,5.8-6.7c0.1-0.1,0.2-0.2,0.2-0.4
						c-0.1-0.4-0.2-0.8-0.4-1.2c-0.1-0.4-0.2-0.8-0.4-1.2c-0.4,0.1-0.8,0.3-1.2,0.4l-10.7,3.4c-0.1,0-0.2,0-0.3,0.2
						c0.2,0.7,0.4,1.4,0.7,2.2C137.8,106.8,140.4,106,143,105.2 M100.9,74.7c-1,0.5-2.1,0.8-3.3,0.6c-1-0.2-1.9-0.7-2.4-1.6
						c-0.3-0.4-0.4-0.9-0.5-1.4c-0.1-0.8,0-1.6,0.1-2.4c0.1-0.5,0.3-1.1,0.6-1.6c0.5-0.9,1.2-1.4,2.2-1.6c0.7-0.1,1.4-0.1,2.1,0.2
						c1,0.3,1.6,1,1.8,2c0,0.1,0,0.2,0.1,0.3c0.6,0,2.3,0,2.6-0.1c-0.1-1.1-0.5-2.1-1.2-2.9c-0.5-0.6-1.2-0.9-1.9-1.2
						c-0.8-0.3-1.6-0.4-2.4-0.5c-0.8-0.1-1.6,0-2.4,0.2c-1.7,0.6-2.8,1.7-3.5,3.2c-0.7,1.6-0.9,3.2-0.6,4.9c0.3,1.7,1.3,3.1,2.8,3.9
						c0.3,0.2,0.7,0.4,1.1,0.5c2.2,0.7,4.3,0.6,6.4-0.3c0.3-0.1,0.5-0.3,0.8-0.5c0-0.1,0.1-0.3,0.1-0.4c0.2-1.3,0.4-2.5,0.6-3.8
						c0-0.3,0.1-0.5,0.1-0.8c-0.2,0-0.3-0.1-0.5-0.1c-0.8-0.1-1.7-0.3-2.5-0.4c-0.7-0.1-1.4-0.2-2.1-0.3c-0.1,0-0.3-0.1-0.4,0
						c-0.1,0.3-0.1,0.7-0.2,1c0,0.3-0.1,0.7-0.1,1c1,0.2,1.9,0.3,2.9,0.5C101.1,73.6,101,74.2,100.9,74.7 M141.6,125.7
						c-0.6-0.7-1-1.5-1.2-2.3c-0.1-0.6-0.1-1.2,0-1.9c0.3-1.1,1-1.8,2.1-2.2c0.5-0.2,1-0.3,1.5-0.4c0.8-0.1,1.6-0.1,2.4,0.1
						c1.3,0.3,2.2,1.1,2.6,2.4c0.1,0.5,0.2,0.9,0.1,1.4c-0.1,1.1-0.6,1.9-1.6,2.4c-0.1,0.1-0.2,0.1-0.3,0.2c0.2,0.8,0.4,1.6,0.6,2.4
						c0.1,0,0.1,0,0.1,0c0.1,0,0.2,0,0.2-0.1c1.6-0.6,2.6-1.7,3-3.4c0.3-1.2,0.2-2.4,0-3.5c-0.4-1.8-1.4-3.1-3-3.9
						c-0.7-0.3-1.4-0.5-2.1-0.6c-1.6-0.2-3.2,0-4.7,0.7c-1.6,0.8-2.6,2-3,3.7c-0.3,1-0.3,2.1-0.1,3.1c0.2,1.4,0.8,2.7,1.6,3.9
						c0.2,0.2,0.3,0.4,0.5,0.6c1.6-0.1,3.3-0.2,4.9-0.2c0,0,0.1,0,0.1-0.1c0-0.1,0-0.2,0-0.2c0-1-0.1-2.1-0.2-3.1
						c0-0.6-0.1-1.2-0.1-1.7c0-0.1,0-0.3-0.1-0.4c-1.1,0-1.7,0-2.1,0.2c0,0.9,0.1,1.9,0.1,2.9C142.6,125.6,142.1,125.6,141.6,125.7
						 M125.1,91.4c0,0.1,0.1,0.1,0.1,0.2c1,1.3,1.9,2.5,2.9,3.8c0.3,0.3,0.6,0.7,0.9,1c0.4,0.4,0.9,0.8,1.4,1
						c0.4,0.2,0.9,0.3,1.3,0.4c1.1,0.1,2.1-0.1,3.1-0.6c1.4-0.7,2.5-1.6,3.5-2.7c0.4-0.5,0.8-1.1,1-1.7c0.5-1.4,0.4-2.7-0.3-4
						c-0.3-0.4-0.6-0.9-0.9-1.3c-0.9-1.1-1.8-2.3-2.7-3.4c-0.1-0.1-0.2-0.3-0.3-0.3C134.8,83.8,125.4,91.1,125.1,91.4 M55.3,80.8
						c0.1-0.8,0.1-1.5,0.2-2.3c0.1-0.8,0.1-1.5,0.2-2.3c0-0.7,0.1-1.5,0.2-2.3c-0.1,0-0.1,0.1-0.2,0.1c-0.8,0.6-1.5,1.3-2.3,1.9
						c-0.1,0.1-0.2,0.2-0.2,0.4c0,0.1,0,0.2,0,0.2c-0.1,2.1-0.2,4.3-0.3,6.4c0,0.1,0,0.3,0,0.4c0,0.1,0,0.2-0.1,0.2
						c-1.2-1.4-2.3-2.8-3.5-4.2c-0.7,0.6-1.3,1.1-2,1.6c0.2,0.3,4.8,5.9,7.9,9.6c0.1,0.1,0.1,0.2,0.2,0.2c0,0,0.1,0,0.1,0
						c0.6-0.5,1.2-1,1.8-1.4c0.1,0,0.1-0.1,0.1-0.2c-0.8-1-1.6-2-2.4-2.9c0.1-1,0.1-1.9,0.3-2.9c2.2,0.8,4.3,1.6,6.5,2.4
						c0.8-0.6,2.3-1.8,2.5-2.1c-1.5-0.5-2.9-0.9-4.4-1.4C58.3,81.8,56.8,81.3,55.3,80.8 M62.6,72.8c2.1-1,4.1-2,6.2-3
						c-0.3-0.7-0.6-1.3-0.9-1.9c-0.7,0.3-8.2,3.9-8.5,4.1c0.2,0.5,5.3,11.2,5.5,11.5c2.9-1.4,5.7-2.7,8.6-4.1c0,0,0.1-0.1,0.1-0.1
						c-0.3-0.7-0.7-1.6-0.9-1.9c-2.1,1-4.2,2-6.3,3c-0.3-0.4-1.4-2.7-1.5-3.1c0.6-0.3,1.3-0.6,1.9-0.9c0.6-0.3,1.3-0.6,1.9-0.9
						c0.6-0.3,1.3-0.6,1.9-0.9c-0.2-0.6-0.7-1.6-1-1.9c-0.1,0.1-0.3,0.1-0.4,0.2c-1.6,0.8-3.3,1.6-4.9,2.4c-0.1,0.1-0.2,0.2-0.4,0.1
						C63.4,74.5,63,73.7,62.6,72.8 M37.2,126c0.2,0,0.3,0,0.5,0c0.2,0,0.4-0.1,0.6-0.1c1.7-0.3,2.8-1.3,3.4-3c0.3-1,0.4-2.1,0.4-3.2
						c0-0.4-0.1-0.7-0.2-1.1c-0.5-2-2.3-3.3-4.6-2.9c-1,0.2-1.7,0.7-2.2,1.6c-0.3,0.4-0.5,0.9-0.7,1.4c-0.2,0.6-0.5,1.3-0.7,1.9
						c-0.2,0.5-0.3,0.9-0.6,1.3c-0.1,0.2-0.2,0.4-0.4,0.5c-0.5,0.3-1.1,0.3-1.4-0.2c-0.2-0.2-0.2-0.5-0.3-0.7
						c-0.1-0.6-0.1-1.3,0.1-1.9c0.2-0.7,0.7-1.2,1.4-1.3c0.1,0,0.3,0,0.5-0.1c0-0.8,0.1-1.6,0.1-2.5c0,0-0.1-0.1-0.1-0.1
						c-1.4-0.1-2.5,0.4-3.3,1.6c-0.3,0.4-0.5,0.8-0.6,1.2c-0.3,1.1-0.4,2.2-0.3,3.4c0.1,0.6,0.2,1.1,0.5,1.6c1,1.7,3.2,2.2,4.8,1.1
						c0.5-0.3,0.8-0.8,1.1-1.3c0.3-0.6,0.6-1.2,0.8-1.9c0.2-0.6,0.5-1.3,0.7-1.9c0.1-0.3,0.2-0.5,0.4-0.8c0.3-0.3,0.6-0.5,1-0.4
						c0.3,0,0.6,0.1,0.9,0.4c0.4,0.3,0.6,0.7,0.7,1.2c0.1,0.5,0.1,1,0,1.5c-0.2,1-0.8,1.7-1.8,2c-0.1,0-0.3,0.1-0.4,0.1
						c-0.1,0-0.3,0.1-0.4,0.1C37.1,124.4,37.2,125.2,37.2,126 M110.5,179.2c0-0.1,0.1-0.2,0.2-0.2c0.2-0.2,0.5-0.3,0.7-0.5
						c0.4-0.4,0.8-0.9,0.9-1.5c0.3-1.2-0.3-2.8-1.3-3.6c-0.7-0.5-1.4-0.7-2.2-0.5c-0.7,0.1-1.3,0.3-2,0.6c-1.6,0.6-3.1,1.2-4.7,1.8
						c-0.1,0-0.2,0.1-0.3,0.1c1.5,3.7,2.9,7.4,4.4,11.1c0.4-0.1,0.8-0.3,1.1-0.4c0.4-0.2,0.8-0.3,1.1-0.5c-0.6-1.5-1.2-3-1.8-4.6
						c0.3-0.2,0.7-0.3,1-0.4c0.6-0.2,1.2-0.1,1.7,0.2c0.4,0.3,0.9,0.5,1.3,0.8c0.9,0.6,1.7,1.2,2.6,1.8c0.1,0.1,0.2,0.2,0.4,0.2
						c0.8-0.3,1.6-0.6,2.4-0.9c0.1,0,0.1,0,0.1-0.2c-1.1-0.8-2.2-1.7-3.4-2.5C112,179.7,111.3,179.4,110.5,179.2 M100.7,182.8
						c0-0.3,0-0.6-0.1-1c-0.1-0.9-0.3-1.7-0.7-2.5c-0.7-1.5-1.9-2.5-3.5-2.9c-1.1-0.3-2.3-0.2-3.4,0.1c-2,0.5-3.2,1.9-3.8,3.9
						c-0.2,0.7-0.2,1.5-0.2,2.3c0.1,0.9,0.2,1.8,0.6,2.7c0.7,1.7,2,2.8,3.7,3.1c1.2,0.3,2.5,0.2,3.7-0.2c1.7-0.6,2.8-1.7,3.4-3.4
						C100.6,184.2,100.7,183.5,100.7,182.8 M77.3,175.1c-0.4,2-0.7,3.9-1.1,5.8c-0.4,2-0.7,3.9-1.1,5.9c0.5,0.2,2,0.4,2.4,0.4
						c0.2-0.8,0.3-1.7,0.5-2.5c0.2-0.8,0.3-1.7,0.5-2.5c0.1,0,0.3,0,0.4,0c1.3,0.2,2.5,0.5,3.8,0.7c0.2,0,0.3,0,0.5,0.2
						c-0.2,0.8-0.3,1.7-0.5,2.5c-0.1,0.8-0.3,1.7-0.4,2.5c0.4,0.1,0.8,0.2,1.2,0.2c0.4,0.1,0.8,0.2,1.2,0.2
						c0.7-3.9,1.4-7.8,2.2-11.7c-0.8-0.2-1.6-0.3-2.4-0.4c-0.3,1.5-0.6,3.1-0.9,4.6c-1.6-0.3-3.1-0.6-4.6-0.8c-0.1-0.1,0-0.3,0-0.4
						c0.2-1.3,0.5-2.7,0.7-4c0-0.1,0.1-0.2-0.1-0.3C78.8,175.4,78.1,175.3,77.3,175.1 M46.7,86.6c-0.8-0.3-1.5-0.4-2.2-0.4
						c-1.1,0.1-2,0.5-2.8,1.2c-0.8,0.7-1.4,1.5-1.8,2.4c-0.5,1.2-0.6,2.4-0.3,3.6c0.2,0.9,0.7,1.7,1.3,2.4c0.9,1,1.9,1.8,3.1,2.4
						c0.8,0.4,1.7,0.7,2.7,0.7c1.4,0,2.7-0.5,3.8-1.4c0.8-0.7,1.3-1.5,1.7-2.5c0.4-1.1,0.4-2.2,0.1-3.2c-0.3-0.7-0.6-1.3-1.1-1.9
						c-0.5,0.3-1.8,1.3-2.1,1.5c0,0.1,0.2,0.2,0.2,0.4c0.2,0.3,0.4,0.6,0.5,0.9c0.2,0.4,0.3,0.9,0.2,1.4c-0.2,1.4-1.5,2.7-3.3,2.5
						c-0.4-0.1-0.7-0.2-1.1-0.3c-1.1-0.5-2.1-1.2-2.9-2.1c-0.2-0.2-0.4-0.4-0.5-0.7c-0.2-0.2-0.3-0.5-0.4-0.8c-0.3-1.1,0-2,0.7-2.8
						c0.7-0.8,1.7-1.1,2.8-0.8c0.1,0,0.2,0.1,0.4,0.1C46,88.2,46.3,87.4,46.7,86.6 M47.9,165.4c-0.5,0.8-1.1,1.6-1.6,2.4
						c0,0.1,0.1,0.1,0.1,0.2c0.4,0.6,0.8,1.2,1.3,1.8c0,0.1,0.1,0.1,0.2,0.1c0.9-1.3,6.7-10.4,6.9-10.8c-0.4-0.6-1.2-1.8-1.5-2
						c-0.1,0-0.2,0-0.2,0c-3.9,1-7.8,2-11.8,3c-0.1,0-0.1,0-0.2,0.1c-0.1,0-0.1,0-0.1,0.1c0.5,0.6,0.9,1.3,1.4,2
						c0.9-0.3,1.9-0.5,2.8-0.8C46,162.8,46.9,164.1,47.9,165.4 M64,168.4c-0.2,0.1-0.3,0.2-0.4,0.4c-1.4,1.7-2.7,3.3-4.1,5
						c-0.3,0.4-0.7,0.8-1,1.1c-0.6,0.6-1.5,0.6-2.1,0.3c-0.5-0.3-0.9-0.6-1.2-1c-0.3-0.4-0.5-0.9-0.4-1.4c0-0.4,0.2-0.7,0.4-1
						c0.3-0.4,0.6-0.8,1-1.3c1.3-1.6,2.6-3.1,3.8-4.7c0.1-0.1,0.2-0.3,0.3-0.4c-0.6-0.5-1.2-1-1.9-1.5c-0.1,0.1-0.2,0.2-0.3,0.4
						c-1,1.3-2.1,2.6-3.1,3.8c-0.5,0.6-1.1,1.3-1.5,1.9c-0.3,0.4-0.5,0.8-0.8,1.2c-0.3,0.7-0.4,1.3-0.3,2.1c0.1,0.7,0.4,1.4,0.9,1.9
						c0.6,0.7,1.4,1.4,2.2,1.9c0.3,0.2,0.5,0.3,0.8,0.4c0.7,0.3,1.5,0.4,2.2,0.1c0.6-0.2,1.1-0.5,1.5-0.9c0.5-0.5,0.9-1,1.4-1.5
						c1.4-1.7,2.8-3.4,4.2-5.1c0.1-0.1,0.1-0.1,0.2-0.2C65.2,169.3,64.6,168.8,64,168.4 M44.2,109.4c-0.1,0-0.1-0.1-0.2-0.1
						c-0.5-0.2-1-0.3-1.5-0.5c-2.6-0.8-5.3-1.7-7.9-2.5c-0.1,0-0.3,0-0.4-0.2c0.3-1.2,0.7-2.3,1.1-3.5c-0.3-0.1-0.7-0.2-1-0.3
						c-0.3-0.1-0.7-0.3-1-0.3c-0.1,0.1-0.1,0.2-0.1,0.2c-0.2,0.7-0.4,1.4-0.6,2c-0.7,2.3-1.5,4.7-2.2,7c0,0.1-0.1,0.2,0,0.4
						c0.6,0.2,1.3,0.4,1.9,0.6c0.1-0.1,0.1-0.2,0.2-0.3c0.3-1,0.6-1.9,0.9-2.9c0-0.1,0-0.3,0.2-0.4c0.1,0,0.2,0,0.3,0.1
						c3.1,1,6.3,2,9.4,2.9c0.1,0,0.2,0.1,0.3,0C43.6,111.3,44.1,109.8,44.2,109.4 M123.6,161.8c0.2,0,0.2,0,0.3,0
						c2.5,0.1,4.9,0.1,7.4,0.2c0.3,0,0.5,0.1,0.7,0.2c1.1,0.8,2.2,1.5,3.4,2.3c0.1,0.1,0.3,0.2,0.5,0.3c0.4-0.5,1.1-1.6,1.3-2
						c-0.1-0.1-0.2-0.2-0.4-0.3c-1.1-0.8-2.2-1.5-3.4-2.2c-0.3-0.2-0.5-0.4-0.6-0.7c-1-2.2-2-4.5-3-6.7c0-0.1,0-0.1-0.1-0.2
						c0,0,0-0.1-0.1-0.1c-0.3,0.3-1.3,1.9-1.5,2.3c0.2,0.4,0.4,0.8,0.6,1.2l0.6,1.2c0.2,0.4,0.4,0.8,0.6,1.2
						c0.2,0.4,0.4,0.8,0.6,1.2c-1.8-0.1-3.6-0.2-5.4-0.3C124.6,160.2,123.8,161.4,123.6,161.8 M71.8,175.1c0.2,0,0.3,0.1,0.5,0.2
						c0.8,0.4,1.6,0.7,2.4,1.1c0.1,0,0.2,0.1,0.3,0.1c0.3-0.6,0.7-1.5,0.8-1.8c-0.1,0-0.1-0.1-0.2-0.1c-2.8-1.3-5.5-2.5-8.3-3.8
						c0,0,0,0,0,0c0,0,0,0,0,0c-0.3,0.4-0.7,1.4-0.8,1.8c0.1,0.1,0.3,0.1,0.4,0.2c0.8,0.4,1.6,0.7,2.4,1.1c0.1,0.1,0.3,0.1,0.3,0.2
						c-1.4,3-2.7,5.9-4.1,8.9c0.7,0.3,1.4,0.7,2.2,1C69,181,70.4,178,71.8,175.1 M121.6,166.2c0.9-0.8,1.8-1.6,2.6-2.4
						c-0.5-0.5-0.9-1-1.3-1.5c-0.1,0.1-0.2,0.1-0.3,0.2c-2.2,2-4.4,3.9-6.6,5.9c-0.1,0.1-0.2,0.1-0.2,0.3c0.4,0.4,0.8,1,1.3,1.4
						c0.5-0.4,0.9-0.8,1.3-1.2c0.4-0.4,0.9-0.8,1.3-1.2c0.5,0.5,0.9,1,1.3,1.5c0.4,0.5,0.9,1,1.3,1.5c0.4,0.5,0.9,1,1.3,1.5
						c0.4,0.5,0.9,1,1.3,1.5c0.4,0.5,0.9,1,1.3,1.5c0.5-0.4,1.5-1.3,1.8-1.6C126,171.2,123.9,168.7,121.6,166.2 M37.9,144.5
						c0.4-0.1,0.8-0.1,1.1-0.2c0.4-0.1,0.7-0.1,1.1-0.2c0.4-0.1,0.7-0.1,1.1-0.2c-0.3-0.3-0.6-0.6-0.8-0.8c-0.3-0.3-0.5-0.5-0.8-0.8
						c-0.3-0.3-0.6-0.5-0.8-0.8c0.1-0.6,0.2-1.1,0.3-1.6c0.1-0.5,0.2-1.1,0.3-1.7c-1,0.5-2,1.1-3,1.6c-1-0.5-2-1-3-1.6
						c0.2,1.2,0.4,2.3,0.6,3.4c-0.1,0.1-0.3,0.2-0.4,0.3c-0.6,0.6-1.2,1.2-1.8,1.8c-0.1,0.1-0.2,0.1-0.1,0.2
						c1.1,0.2,2.2,0.3,3.3,0.5c0.2,0.4,0.3,0.7,0.5,1c0.2,0.3,0.3,0.7,0.5,1c0.2,0.3,0.3,0.7,0.5,1
						C36.9,146.4,37.4,145.5,37.9,144.5 M140.8,141.5c-0.8,0.8-1.5,1.5-2.3,2.2c0,0,0,0,0,0c0,0,0,0,0,0c0,0,0,0,0,0.1
						c1.1,0.2,2.2,0.3,3.3,0.5c0.5,1,1,2,1.5,3c0.6-1,1-2.1,1.5-3.1c1.1-0.2,2.2-0.3,3.4-0.5c-0.4-0.4-0.8-0.8-1.2-1.2
						c-0.4-0.4-0.8-0.8-1.2-1.2c0-0.2,0-0.3,0.1-0.4c0.1-0.9,0.3-1.7,0.4-2.6c0-0.1,0.1-0.2,0-0.3c-1,0.5-2,1-2.9,1.5
						c-0.5-0.3-1-0.5-1.5-0.8c-0.5-0.3-1-0.5-1.5-0.8C140.4,139.3,140.6,140.4,140.8,141.5 M133.4,103.6c0.5-0.2,11-5.7,11.3-6
						c-0.2-0.4-0.9-1.9-1.2-2.2c-0.4,0.1-10.9,5.7-11.3,6C132.6,102.2,133,102.9,133.4,103.6 M47.2,102.5c-1-0.5-1.9-0.9-2.8-1.4
						c-1-0.5-1.9-0.9-2.9-1.4c-0.9-0.5-1.9-0.9-2.8-1.4c-1-0.5-1.9-0.9-2.9-1.4c-0.2,0.4-0.4,0.8-0.6,1.2c-0.2,0.4-0.4,0.7-0.5,1.1
						c0.7,0.4,11.1,5.5,11.5,5.6C46.4,104,46.8,103.3,47.2,102.5 M121.2,179.2c-2.2-3.4-4.3-6.7-6.4-10c0,0,0,0,0,0c0,0,0,0,0,0
						c-0.6,0.3-1.7,1-2,1.3c0,0.1,0.1,0.2,0.1,0.2c2.1,3.2,4.1,6.5,6.2,9.7c0,0,0,0,0,0c0,0,0,0,0.1,0
						C119.9,180,120.5,179.6,121.2,179.2 M135.6,151.8c0-1.1-0.9-2.1-2.1-2.1c-1.3,0-2.1,1.1-2.1,2.1c0,1.2,0.9,2.1,2.1,2.1
						C134.7,153.9,135.6,153,135.6,151.8"/>
					<path class="st0" d="M100,162.5c0.2,0,0.3,0,0.4,0c2-1.4,4-2.7,5.7-4.5c1.8-1.9,3.3-4,4.4-6.4c0.5-0.9,0.9-1.9,1.2-2.8
						c0.2-0.6,0.5-1.1,0.8-1.6c0-0.1,0.1-0.1,0.1-0.2c0.1-0.3,0.2-0.5,0.1-0.8c-0.1-0.2-0.2-0.4-0.3-0.6c-0.2-0.4-0.3-0.7-0.4-1.2
						c-0.2-1.5-0.4-3.1-0.6-4.6c-0.3-2-0.7-3.9-1.4-5.8c-0.2-0.6-0.4-1.1-0.7-1.6c-0.4-0.7-0.9-1.2-1.6-1.6c-1.5-0.7-3-1.6-4.4-2.4
						c-1-0.6-2.1-1.2-3.1-1.8c-0.1,0-0.2-0.1-0.2-0.1c0.1-0.1,0.2-0.1,0.2-0.1c1.9,0,3.8,0,5.7,0c0.4,0,0.8,0.1,1.1,0.1
						c0.7,0.1,1.3,0.3,2,0.4c0.3,0,0.5,0.2,0.7,0.4c0.2,0.3,0.5,0.5,0.7,0.8c0.5,0.5,1,0.9,1.5,1.3c0.6,0.4,1.2,0.8,1.9,1
						c0.6,0.2,1.1,0.6,1.4,1.1c0.5,0.7,0.9,1.5,1.1,2.4c0.3,1.2,0.4,2.4,0.3,3.6c-0.1,1.8-0.4,3.7-0.9,5.5c-0.3,1.1-0.5,2.1-0.9,3.2
						c-0.1,0.3-0.3,0.6-0.5,0.9s-0.4,0.6-0.5,0.9c-0.2,0.4-0.2,0.8-0.2,1.2c0,0,0.1,0,0.1,0c1.7-1.6,3-3.4,3.9-5.5
						c0.5-1.4,0.8-2.8,0.9-4.3c0-0.2,0-0.4,0-0.6c0-0.3,0-0.6,0.3-0.8v-1.4c-0.3-0.4-0.4-0.4-0.3-0.9c0-0.4,0-0.9,0-1.3
						c0-0.6-0.1-1.3-0.3-1.9c-0.2-0.8-0.5-1.5-1-2.2c-0.9-1.2-1.8-2.4-2.7-3.6c0,0-0.1-0.1-0.1-0.2c0,0,0.1,0,0.1,0
						c6.4,0,12.9,0,19.3,0c0.1,0.1,0.1,0.3,0.1,0.4c0,1.2-0.1,2.4-0.2,3.6c-0.2,1.9-0.5,3.7-0.9,5.6c-1.3,5.7-3.6,10.9-7,15.7
						c-5.9,8.3-13.8,14-23.6,17c-2,0.6-4,1-6.1,1.4c-1.9,0.3-3.8,0.5-5.8,0.5c-0.1,0-0.3,0-0.4,0c0,0-0.1,0-0.1,0c0,0,0,0,0,0
						c0,0,0,0,0,0c0-9,0-18,0-27c0-0.1,0-0.1,0-0.2c1.2-0.4,1.2-0.4,2.2-1.3c1.1-0.9,2.1-1.9,3-3c1.1-1.3,1.9-2.7,2.4-4.3
						c0.3-0.8,0.4-1.6,0.3-2.5c-0.1-0.6-0.2-1.3-0.3-1.9c0-0.1,0-0.1,0-0.2c0.1-0.1,0.2,0,0.2,0c0.7,0.4,1.4,0.8,2,1.3
						c0.9,0.7,1.8,1.3,2.7,1.9c0.7,0.5,1.4,1,2,1.6c0.7,0.6,1.3,1.1,2,1.8c0.2,1.3,0.8,2.5,1.5,3.7c0.4,0.7,0.7,1.4,1,2.1
						c0.4,1,0.7,2.1,0.7,3.2c0,1.2-0.2,2.4-0.6,3.5c-0.4,1.2-1,2.3-1.7,3.3c-2.1,3.2-4.5,6.2-7.3,8.9c-0.1,0.1-0.3,0.3-0.4,0.4
						C100.1,161.9,99.9,162.1,100,162.5"/>
					<path class="st0" d="M45.6,126.3c0.7,0,19.2,0,19.5,0c0,0,0,0.1,0,0.1c-0.9,1.3-1.7,2.5-2.6,3.7c-0.3,0.4-0.6,0.8-0.9,1.2
						c-0.1,0.1-0.2,0.2-0.3,0.4c-0.2,0.3-0.3,0.7-0.2,1c0,0.1,0.1,0.2,0.1,0.3c0.2,0.7,0,1.5-0.1,2.2c-0.1,0.3-0.2,0.5-0.2,0.8
						c-0.1,0.4-0.1,0.8,0,1.1c0.3,0.7,0.3,1.4,0,2.1c-0.1,0.3-0.1,0.5,0,0.7c0.2,0.3,0.2,0.5,0.3,0.8c0,0.2,0.1,0.4,0.1,0.6
						c0,0.6,0.2,1.2,0.3,1.7c0.4,1.3,0.9,2.5,1.7,3.7c0.4,0.7,0.9,1.3,1.4,1.9c0.1,0.1,0.1,0.2,0.3,0.2c0.1,0,0.2-0.1,0.3-0.1
						c0.2-0.2,0.3-0.4,0.2-0.7c0-0.1-0.1-0.3-0.2-0.4c-0.7-1.4-1.1-2.8-1.4-4.3c-0.2-1.3-0.4-2.6-0.5-4c-0.1-0.7-0.2-1.5-0.3-2.2
						c-0.2-1.3-0.1-2.6,0.3-3.9c0.3-1,0.8-1.8,1.6-2.4c0.8-0.7,1.7-1.4,2.5-2.1c0.6-0.5,1.3-0.9,1.9-1.3c1-0.6,2.2-1,3.3-1.3
						c0.2,0,0.3,0,0.5,0c2.1,0,4.2,0,6.2,0c0.1,0,0.2,0,0.2,0c0,0.2-0.1,0.2-0.2,0.2c-1.4,0.9-2.8,1.7-4.2,2.5
						c-1.5,0.8-3,1.7-4.6,2.5c-0.2,0.1-0.4,0.3-0.5,0.6c-0.5,1.9-1.1,3.7-1.6,5.6c-0.3,1.3-0.6,2.5-0.7,3.8
						c-0.1,0.6-0.1,1.3-0.1,1.9c0,0.3,0,0.7-0.1,1c-0.1,0.5-0.2,0.9-0.5,1.3c-0.1,0.2-0.2,0.4-0.2,0.6c0,0.2,0,0.4,0.1,0.5
						c0.7,1.2,1.2,2.5,1.8,3.8c0.3,0.7,0.6,1.4,1,2.2c0.9,1.9,2.2,3.5,3.6,5c1.6,1.6,3.3,2.9,5.1,4.2c0.2,0.1,0.4,0.3,0.7,0.4
						c0.1,0.1,0.3,0.1,0.4,0.1c0.1-0.1,0.1-0.3,0-0.5c-0.1-0.2-0.2-0.4-0.4-0.6c-0.7-0.8-1.5-1.5-2.2-2.3c-1.4-1.5-2.7-3.1-3.9-4.8
						c-1.2-1.7-2.2-3.5-3-5.4c-0.1-0.4-0.3-0.7-0.4-1.1c-0.1-0.3-0.2-0.7,0-1.1c0.1-0.1,0.1-0.3,0.2-0.4c0.2-0.2,0.2-0.4,0-0.7
						c-0.3-0.5-0.4-1-0.3-1.5c0-0.3,0.1-0.6,0.2-0.9c0.2-0.4,0.4-0.7,0.6-1.1c0.4-0.7,0.8-1.5,1.2-2.2c0.4-0.7,0.7-1.5,0.8-2.3
						c0-0.2,0.1-0.4,0.1-0.5c0-0.3,0.1-0.5,0.3-0.7c0.6-0.5,1.2-1,1.9-1.6c1.5-1.2,3.1-2.3,4.7-3.5c0.7-0.5,1.5-1,2.2-1.5
						c0.1-0.1,0.2-0.2,0.4-0.2c0,0.1,0,0.2,0,0.2c-0.2,1-0.4,2.1-0.3,3.1c0.1,1.2,0.4,2.4,1,3.5c0.4,0.9,1,1.6,1.6,2.4
						c0.8,0.9,1.7,1.7,2.6,2.5c0.3,0.2,0.6,0.5,0.8,0.7c0.8,0.6,0.8,0.7,1.7,1c0,0,0,0,0,0c0,0,0,0,0,0c0,8.9,0,17.8,0,26.7v0.4
						c-0.1,0.1-0.2,0.1-0.3,0.1c-1.2,0-2.3-0.1-3.5-0.2c-1.3-0.1-2.5-0.3-3.8-0.5c-3.1-0.5-6.1-1.4-9-2.6
						c-11.8-4.9-20.9-14.5-25.1-26.5c-0.8-2.4-1.4-4.8-1.8-7.3c-0.3-2.1-0.5-4.2-0.6-6.3C45.6,126.7,45.6,126.5,45.6,126.3"/>
					<path class="st0" d="M134.3,125.6c-0.4,0.1-19.6,0.1-20.1,0c-0.1-0.1-0.2-0.2-0.3-0.3c-0.4-0.5-0.8-0.9-1.3-1.4
						c-0.4-0.4-0.8-0.8-1.2-1.2c-0.2-0.2-0.4-0.4-0.6-0.5c-0.4-0.3-0.9-0.5-1.4-0.4c-0.7,0.1-1.4,0.2-2.1,0.3
						c-0.8,0.1-1.6,0.1-2.4,0.1c-1.2,0-2.5,0-3.7-0.1c-0.7,0-1.4,0-2.1,0.1c-0.1,0-0.3,0-0.4,0c-0.2,0-0.4-0.1-0.5-0.2
						c0-0.3,0.1-0.4,0.4-0.5c1-0.4,1.9-0.9,2.8-1.4c1.1-0.6,2.2-1.2,3.4-1.7c0.7-0.3,1.3-0.6,2-0.8c1-0.3,1.9-0.8,2.7-1.6
						c0,0,0.1-0.1,0.1-0.1c0.9-1,1.5-2.2,1.9-3.5c0.2-0.5,0.2-1.1,0.3-1.6c0.1-0.4,0.2-0.7,0.3-1c0.2-0.5,0.3-1.1,0.3-1.6
						c0-0.5,0.1-1.1,0.2-1.6c0.1-0.5,0.3-1.1,0.6-1.5c0.2-0.2,0.2-0.5,0-0.7c0-0.1-0.1-0.1-0.1-0.2c-0.8-1.2-1.5-2.4-2.2-3.6
						c-1-1.7-2.1-3.3-3.4-4.8c-0.8-0.9-1.6-1.8-2.6-2.5c-1-0.8-2-1.4-3.1-1.9c-0.1,0-0.2-0.1-0.3-0.1c-0.2,0.3-0.1,0.5,0,0.8
						c0.1,0.1,0.1,0.2,0.2,0.3c1.5,1.3,2.8,2.8,4,4.3c1.2,1.4,2.3,2.9,3.3,4.4c0.4,0.5,0.7,1.1,0.9,1.7c0.2,0.4,0.3,0.9,0.4,1.4
						c0.1,1.1,0.1,2.1-0.2,3.2c-0.2,0.9-0.7,1.6-1.3,2.2c-0.3,0.3-0.6,0.7-0.8,1.1c-0.2,0.5-0.4,0.9-0.6,1.4c0,0.1-0.1,0.1-0.1,0.2
						c0,0.3-0.2,0.5-0.5,0.7c-2.5,1.7-5,3.2-7.7,4.6c-0.7,0.4-1.5,0.8-2.2,1.2c-0.2,0.1-0.4,0.2-0.5,0.4c-0.1,0.1-0.1,0.1-0.4,0
						c0-0.2,0.1-0.3,0.2-0.4c0.2-0.4,0.5-0.8,0.8-1.2c0.9-1,1.7-2,2.6-3c0.5-0.5,0.9-1,1.3-1.5c0.6-0.7,1-1.6,1.2-2.5
						c0.1-0.5,0.1-0.9,0.2-1.4c0-1.3,0-2.5,0.1-3.8c0-0.8,0.2-1.6,0.4-2.4c0.2-0.7,0.2-0.5,0-1.3c-0.8-3-2.2-5.7-3.9-8.2
						c-0.6-0.9-1.3-1.8-2-2.7c-0.1-0.2-0.3-0.4-0.5-0.5c-0.3-0.3-0.7-0.4-1.1-0.4c0,0.2,0.1,0.3,0.2,0.5c1,1.9,2,3.8,3,5.7
						c0.6,1.1,1.1,2.2,1.6,3.3c0.3,0.7,0.5,1.4,0.7,2.2c0.4,1.8,0.1,3.5-0.9,5.1c-0.4,0.6-0.6,1.2-0.7,1.9c-0.1,0.6-0.3,1.2-0.7,1.7
						c-0.6,0.9-1.3,1.7-2,2.6c-0.7,0.8-1.3,1.5-2,2.3c-0.6,0.7-1.1,1.4-1.6,2.2c0,0.1-0.1,0.1-0.2,0.2c-0.3-0.2-0.5-0.5-0.6-0.8
						c-0.1-0.1-0.1-0.3,0-0.5c0-0.2,0.1-0.3,0.1-0.5c0-0.2,0.1-0.4,0.1-0.6c0-0.6-0.2-1-0.7-1.2c-0.3-0.1-0.6-0.2-0.9-0.2
						c0,0.1,0,0.2,0,0.2c0.1,0.2,0.2,0.3,0.3,0.5c0.2,0.4,0.1,0.6-0.2,1c-0.3-0.1-0.6-0.2-0.9-0.3c0,0,0,0,0-0.1c0,0,0,0,0,0
						c0-11,0-22,0-32.9c0-0.1,0-0.1,0-0.2c0.1-0.1,0.2-0.1,0.3-0.1c1.1,0,2.3,0.1,3.4,0.2c1.2,0.1,2.5,0.3,3.7,0.5
						c3.1,0.5,6.1,1.4,9,2.6c11.5,4.7,20.4,14,24.8,25.6c1,2.6,1.7,5.3,2.2,8.1c0.4,2.2,0.6,4.3,0.6,6.5
						C134.4,125.3,134.4,125.5,134.3,125.6C134.4,125.6,134.4,125.6,134.3,125.6"/>
					<path class="st0" d="M81.9,121.8c0,0.1,0,0.2-0.1,0.3c-0.1,0.1-0.2,0.1-0.3,0c-1.3-0.1-2.6,0-3.9,0c-1.1,0-2.1,0-3.2,0
						c-1.1,0-2.2-0.1-3.3-0.3c-0.4-0.1-0.7-0.1-1.1,0c-0.3,0.1-0.6,0.2-0.9,0.5c-0.5,0.5-1,1-1.6,1.5c-0.7,0.6-1.3,1.2-1.9,1.8H45.7
						c-0.1-0.1-0.1-0.3-0.1-0.4c0-1.4,0.1-2.9,0.3-4.3c0.2-2,0.6-3.9,1-5.8c1.5-5.9,4-11.2,7.7-16c6-7.9,13.8-13.2,23.3-15.9
						c2-0.6,4.1-1,6.2-1.3c1.7-0.2,3.3-0.4,5-0.4c0.2,0,0.3,0,0.5,0c0.1,0.1,0.1,0.2,0.1,0.3c0,0.1,0,0.2,0,0.3v32.2v0.5
						c-0.3,0.1-0.6,0.1-0.8,0.2c-0.2,0-0.4-0.2-0.4-0.4c0-0.2,0.1-0.3,0.1-0.5c0.1-0.2,0.1-0.3-0.1-0.5c-0.2-0.1-0.5,0-0.7,0.1
						c-0.4,0.1-0.6,0.5-0.6,0.9c0,0.2,0.1,0.4,0.2,0.6c0.4,0.7,0.2,1.4-0.4,1.9c0,0-0.1,0-0.1-0.1c-0.7-1.2-1.6-2.3-2.5-3.4
						c-0.9-1-1.7-2.1-2.7-3.1c-0.2-0.2-0.4-0.5-0.6-0.7c-0.3-0.4-0.4-0.8-0.5-1.3c0-0.3-0.1-0.6-0.2-0.9c-0.2-0.7-0.4-1.3-0.8-2
						c-0.7-1.1-1-2.4-0.9-3.7c0.1-0.8,0.3-1.6,0.6-2.3c0.8-1.9,1.6-3.7,2.6-5.5c0.7-1.2,1.3-2.4,2-3.7c0.2-0.4,0.4-0.7,0.6-1.1
						c-0.4,0-0.8,0.2-1.1,0.5c-0.3,0.3-0.6,0.7-0.9,1c-0.9,1.2-1.7,2.4-2.6,3.7c-0.7,1-1.3,2-1.8,3.1c-0.6,1.2-1,2.5-1.1,3.8
						c-0.1,1-0.1,2,0.1,3c0.1,0.5,0.1,1,0.1,1.5c0,0.5,0,1.1,0,1.6c0,0.8,0.1,1.6,0.5,2.4c0.1,0.1,0.1,0.3,0.1,0.4
						c0.1,0.3,0.1,0.7,0,1c-0.1,0.6,0,0.9,0.5,1.2c0.9,0.6,1.6,1.3,2.3,2.1c0.4,0.5,0.9,1,1.3,1.6c0.4,0.4,0.7,0.9,1.2,1.3
						c0.1,0.1,0.3,0.2,0.4,0.4c0.2,0.2,0.3,0.4,0.3,0.7c-0.2,0.2-0.3,0.1-0.5,0c-0.9-0.5-1.9-1.1-2.8-1.6c-2.2-1.3-4.5-2.6-6.7-3.9
						c-0.2-0.1-0.4-0.2-0.5-0.4c-0.4-0.3-0.7-0.7-0.8-1.1c-0.6-1.7-1.5-3.2-2.8-4.6c-0.1-0.1-0.2-0.2-0.2-0.3
						c-0.1-0.2-0.2-0.4-0.1-0.6c0.2-0.5,0.3-1,0.3-1.5c0-0.1,0-0.2,0-0.3c0-0.8,0.2-1.6,0.5-2.3c1-2.5,2.4-4.8,4.1-6.9
						c0.9-1.1,1.8-2.1,2.8-3.1c0.2-0.2,0.5-0.5,0.8-0.7c0.2-0.2,0.5-0.4,0.7-0.6c0.3-0.2,0.5-0.5,0.6-0.9c-0.2-0.2-0.5-0.1-0.7,0
						c-0.1,0-0.2,0.1-0.3,0.1c-2.7,1.3-5,3.2-6.8,5.6c-1.3,1.7-2.3,3.6-3.1,5.6c-0.3,0.8-0.6,1.7-0.8,2.6c-0.2,1.1-0.2,2.1,0.1,3.2
						c0.2,1,0.4,2.1,0.6,3.1c0.2,0.9,0.4,1.8,0.7,2.7c0.3,0.8,0.6,1.5,1.1,2.2c0.1,0.2,0.2,0.4,0.2,0.6c0,0.1,0,0.2,0,0.3
						c0,0.2,0.2,0.4,0.4,0.5c0.1,0,0.2,0.1,0.3,0.1c3.3,1.3,6.6,2.9,9.9,4.5c0.4,0.2,0.7,0.4,1.1,0.6
						C81.8,121.7,81.9,121.8,81.9,121.8"/>
					<path class="st0" d="M109.9,72.9c0.4-1,0.9-2,1.3-2.9c0.1,0,0.1,0,0.1,0c1,0.4,2,0.9,3,1.3c0.2,0.1,0.4,0.2,0.6,0.4
						c0.5,0.4,0.6,1,0.4,1.6c-0.1,0.2-0.1,0.3-0.2,0.5c-0.4,0.6-1.1,0.9-1.6,0.7c-0.1,0-0.3-0.1-0.4-0.1
						C112.1,73.9,111,73.4,109.9,72.9"/>
					<path class="st0" d="M125.5,79.1c0,0.3-1.2,4.2-1.5,4.6c-0.3-0.2-2-1.4-2.7-2c0,0,0,0,0,0c0,0,0,0,0,0c1.3-0.8,2.6-1.7,3.9-2.5
						C125.4,79.2,125.5,79.2,125.5,79.1"/>
					<path class="st0" d="M75.4,67.9c0.1,0,0.2-0.1,0.2-0.1c1.1-0.2,2.2-0.5,3.3-0.7c0.1,0,0.2,0,0.3,0c0.7,0,1.3,0.3,1.5,1.1
						c0.1,0.2,0.1,0.4,0.1,0.6c0,0.6-0.3,1-0.8,1.3c-0.1,0.1-0.3,0.1-0.5,0.2c-1.1,0.3-2.3,0.5-3.5,0.8C75.8,70,75.6,68.9,75.4,67.9
						"/>
					<path class="st0" d="M128.4,92.1c0.3-0.3,6.2-4.9,6.6-5.1c0.1,0,0.1,0.1,0.2,0.2c0.4,0.5,0.8,1.1,1.2,1.6
						c0.2,0.3,0.4,0.5,0.5,0.8c0.4,0.7,0.4,1.5,0,2.2c-0.2,0.4-0.4,0.7-0.7,1c-0.8,0.8-1.7,1.5-2.7,2c-0.4,0.2-0.7,0.3-1.1,0.4
						c-0.5,0.1-0.9,0.1-1.4-0.2c-0.3-0.1-0.5-0.3-0.7-0.5C130,94.2,128.8,92.6,128.4,92.1"/>
					<path class="st0" d="M105.8,179.2c-0.4-0.9-0.7-1.8-1.1-2.7c0.1,0,0.1-0.1,0.2-0.1c1-0.4,1.9-0.8,2.9-1.1
						c0.2-0.1,0.5-0.2,0.8-0.1c0.1,0,0.2,0,0.2,0c0.6,0.2,0.9,0.6,1.1,1.2c0.1,0.5-0.1,1-0.5,1.3c-0.1,0.1-0.3,0.2-0.5,0.3
						c-1,0.5-2,0.8-3,1.2C105.9,179.2,105.9,179.2,105.8,179.2"/>
					<path class="st0" d="M98.2,182.8c0,0.5,0,1.1-0.2,1.6c-0.4,1.3-1.5,2.2-2.9,2.2c-1.4,0-2.4-0.6-3-1.8c-0.2-0.4-0.3-0.8-0.4-1.3
						c-0.2-0.8-0.2-1.7-0.1-2.5c0.2-1.3,1.1-2.5,2.9-2.7c0.4,0,0.9,0,1.3,0.1c0.8,0.3,1.4,0.9,1.8,1.7c0.3,0.6,0.4,1.3,0.5,2
						C98.2,182.4,98.2,182.6,98.2,182.8"/>
					<path class="st0" d="M49.1,163.6c-0.6-0.9-1.2-1.8-1.9-2.6c0.1,0,0.1-0.1,0.2-0.1c1.1-0.4,3.8-1.1,4.2-1.1
						c-0.2,0.5-0.6,0.9-0.8,1.3c-0.3,0.4-0.6,0.8-0.8,1.2C49.7,162.7,49.4,163.1,49.1,163.6"/>
					<path class="st0" d="M133.5,153.7c-1.1,0-1.8-0.9-1.8-1.9c0-1,0.9-1.8,1.9-1.8c0.9,0,1.8,0.7,1.8,1.9
						C135.3,152.9,134.5,153.7,133.5,153.7 M134.2,151.3c0.1,0,0.1,0,0.2,0c0.1,0,0.2,0.2,0.3,0.2c0.1-0.1,0.1-0.1,0.1-0.2
						c-0.3-0.3-0.6-0.6-1-0.8c-0.1,0.1-0.2,0.2-0.3,0.3c0.1,0.2,0.2,0.4,0.3,0.6c0,0,0,0,0,0c0,0,0,0,0,0c-0.2-0.1-0.5-0.2-0.8-0.3
						c-0.1,0.1-0.1,0.2-0.2,0.2c0,0,0,0,0,0c0.3,0.4,0.7,0.7,1,0.9c0.1-0.2,0.1-0.2,0-0.3c-0.1-0.1-0.3-0.4,0.1-0.3
						c0,0,0.2,0.1,0.2,0.1c0.2,0,0.2-0.1,0.1-0.2C134.3,151.5,134.3,151.4,134.2,151.3 M132.5,152.3c0.3,0.2,0.5,0.5,0.8,0.7
						c0.1,0,0.2-0.1,0.2-0.2c-0.3-0.2-0.5-0.5-0.8-0.7c0.1-0.1,0.1-0.1,0.1-0.2c0-0.1,0.1-0.1,0.1-0.2c0-0.1-0.1-0.1-0.2-0.1
						c-0.2,0.2-0.4,0.5-0.7,0.8c0,0.1,0.1,0.2,0.2,0.2C132.3,152.5,132.4,152.4,132.5,152.3"/>
				</g>
			</g>
		</g>
	</g>
</g>
</svg>
